<svg width="20" height="20" viewBox="0 0 20 20" fill="none" xmlns="http://www.w3.org/2000/svg">
<g id="Menu / More_Grid_Big">
<g id="Vector">
<path d="M14.1667 15C14.1667 15.4602 14.5398 15.8333 15 15.8333C15.4602 15.8333 15.8333 15.4602 15.8333 15C15.8333 14.5398 15.4602 14.1667 15 14.1667C14.5398 14.1667 14.1667 14.5398 14.1667 15Z" stroke="#A5A6F6" stroke-width="2" stroke-linecap="round" stroke-linejoin="round"/>
<path d="M9.16667 15C9.16667 15.4602 9.53977 15.8333 10 15.8333C10.4602 15.8333 10.8333 15.4602 10.8333 15C10.8333 14.5398 10.4602 14.1667 10 14.1667C9.53977 14.1667 9.16667 14.5398 9.16667 15Z" stroke="#A5A6F6" stroke-width="2" stroke-linecap="round" stroke-linejoin="round"/>
<path d="M4.16667 15C4.16667 15.4602 4.53977 15.8333 5.00001 15.8333C5.46024 15.8333 5.83334 15.4602 5.83334 15C5.83334 14.5398 5.46024 14.1667 5.00001 14.1667C4.53977 14.1667 4.16667 14.5398 4.16667 15Z" stroke="#A5A6F6" stroke-width="2" stroke-linecap="round" stroke-linejoin="round"/>
<path d="M14.1667 10C14.1667 10.4602 14.5398 10.8333 15 10.8333C15.4602 10.8333 15.8333 10.4602 15.8333 10C15.8333 9.53977 15.4602 9.16667 15 9.16667C14.5398 9.16667 14.1667 9.53977 14.1667 10Z" stroke="#A5A6F6" stroke-width="2" stroke-linecap="round" stroke-linejoin="round"/>
<path d="M9.16667 10C9.16667 10.4602 9.53977 10.8333 10 10.8333C10.4602 10.8333 10.8333 10.4602 10.8333 10C10.8333 9.53977 10.4602 9.16667 10 9.16667C9.53977 9.16667 9.16667 9.53977 9.16667 10Z" stroke="#A5A6F6" stroke-width="2" stroke-linecap="round" stroke-linejoin="round"/>
<path d="M4.16667 10C4.16667 10.4602 4.53977 10.8333 5.00001 10.8333C5.46024 10.8333 5.83334 10.4602 5.83334 10C5.83334 9.53977 5.46024 9.16667 5.00001 9.16667C4.53977 9.16667 4.16667 9.53977 4.16667 10Z" stroke="#A5A6F6" stroke-width="2" stroke-linecap="round" stroke-linejoin="round"/>
<path d="M14.1667 5.00001C14.1667 5.46024 14.5398 5.83334 15 5.83334C15.4602 5.83334 15.8333 5.46024 15.8333 5.00001C15.8333 4.53977 15.4602 4.16667 15 4.16667C14.5398 4.16667 14.1667 4.53977 14.1667 5.00001Z" stroke="#A5A6F6" stroke-width="2" stroke-linecap="round" stroke-linejoin="round"/>
<path d="M9.16667 5.00001C9.16667 5.46024 9.53977 5.83334 10 5.83334C10.4602 5.83334 10.8333 5.46024 10.8333 5.00001C10.8333 4.53977 10.4602 4.16667 10 4.16667C9.53977 4.16667 9.16667 4.53977 9.16667 5.00001Z" stroke="#A5A6F6" stroke-width="2" stroke-linecap="round" stroke-linejoin="round"/>
<path d="M4.16667 5.00001C4.16667 5.46024 4.53977 5.83334 5.00001 5.83334C5.46024 5.83334 5.83334 5.46024 5.83334 5.00001C5.83334 4.53977 5.46024 4.16667 5.00001 4.16667C4.53977 4.16667 4.16667 4.53977 4.16667 5.00001Z" stroke="#A5A6F6" stroke-width="2" stroke-linecap="round" stroke-linejoin="round"/>
</g>
</g>
</svg>
