<svg width="20" height="20" viewBox="0 0 20 20" fill="none" xmlns="http://www.w3.org/2000/svg">
<g id="File / Note_Edit">
<path id="Vector" d="M8.33349 3.33333H6.00016C5.06674 3.33333 4.59968 3.33333 4.24316 3.51499C3.92956 3.67478 3.67477 3.92956 3.51498 4.24316C3.33333 4.59968 3.33333 5.06674 3.33333 6.00016V14.0002C3.33333 14.9336 3.33333 15.4 3.51498 15.7566C3.67477 16.0702 3.92956 16.3254 4.24316 16.4852C4.59933 16.6667 5.06582 16.6667 5.99742 16.6667H14.0026C14.9342 16.6667 15.4 16.6667 15.7562 16.4852C16.0698 16.3254 16.3254 16.0699 16.4852 15.7563C16.6667 15.4002 16.6667 14.9342 16.6667 14.0026V11.6667M13.3333 4.16666L8.33333 9.16666V11.6667H10.8333L15.8333 6.66666M13.3333 4.16666L15.8333 1.66666L18.3333 4.16666L15.8333 6.66666M13.3333 4.16666L15.8333 6.66666" stroke="#A5A6F6" stroke-width="2" stroke-linecap="round" stroke-linejoin="round"/>
</g>
</svg>
